#!OML:ASF H:\MichaelJackson\Top Level 1\Subject 1\Session 1\male.ASF
:FULLY-SPECIFIED
:DEGREES
360
root 15.1576 16.9822 13.2296 -365.247 70.3022 -14.1005
lowerback -1.38413 -5.52976 -3.03257
upperback -0.448955 -7.35254 2.85401
thorax 1.06581 -3.69798 4.41088
lowerneck -4.18148 -15.867 -9.26322
upperneck 23.8223 -22.5179 7.18505
head 10.1723 -10.5778 1.39712
rclavicle 1.1455e-014 -2.42517e-014
rhumerus -60.773 24.6239 -93.5899
rradius 57.9547
rwrist 21.4463
rhand -23.4743 -14.8428
rfingers 7.12502
rthumb 2.98508 -44.8017
lclavicle 1.1455e-014 -2.42517e-014
lhumerus -30.0886 -10.4447 94.0842
lradius 43.8827
lwrist 14.4906
lhand -19.5747 11.797
lfingers 7.12502
lthumb 6.75042 41.6694
rfemur -8.40872 26.7531 14.7278
rtibia 40.1166
rfoot 15.0688 26.8129
rtoes 38.2238
lfemur -31.984 -1.82891 -0.0414421
ltibia 36.6895
lfoot -8.35115 -17.7158
ltoes -16.4517
361
root 14.9716 17.0089 13.2641 -365.109 71.2258 -14.3083
lowerback -0.962513 -5.5354 -2.83247
upperback -0.326514 -7.37091 2.9277
thorax 0.943341 -3.70669 4.41317
lowerneck -4.09025 -15.9498 -9.26457
upperneck 23.1284 -22.6104 7.38838
head 9.93925 -10.6316 1.47653
rclavicle 1.1122e-013 -6.36111e-015
rhumerus -60.3981 25.8463 -93.5913
rradius 58.2084
rwrist 21.7745
rhand -23.786 -15.1042
rfingers 7.12502
rthumb 2.68407 -45.067
lclavicle 1.1122e-013 -6.36111e-015
lhumerus -29.6926 -10.4634 93.6304
lradius 44.3433
lwrist 14.6043
lhand -20.0146 11.9257
lfingers 7.12502
lthumb 6.32568 41.8112
rfemur -9.11652 26.5326 14.5993
rtibia 39.7704
rfoot 14.9702 26.8379
rtoes 38.6038
lfemur -32.6387 -3.32222 0.362351
ltibia 35.4167
lfoot -6.91823 -16.4319
ltoes -17.5617
362
root 14.7809 17.0375 13.298 -365.201 72.1607 -14.7334
lowerback -0.480096 -5.54645 -2.56975
upperback -0.177279 -7.39516 3.03145
thorax 0.811109 -3.71819 4.41699
lowerneck -3.98501 -16.0383 -9.26379
upperneck 22.3931 -22.7076 7.59643
head 9.69236 -10.69 1.55867
rclavicle 2.81777e-014 -3.57812e-015
rhumerus -60.0066 27.1018 -93.5341
rradius 58.5447
rwrist 22.0675
rhand -24.0257 -15.3125
rfingers 7.12502
rthumb 2.45253 -45.2781
lclavicle 2.81777e-014 -3.57812e-015
lhumerus -29.2854 -10.6182 93.219
lradius 44.8406
lwrist 14.7578
lhand -20.3921 11.907
lfingers 7.12502
lthumb 5.96125 41.8031
rfemur -9.81419 26.0593 14.525
rtibia 39.4444
rfoot 14.8081 26.8743
rtoes 38.8532
lfemur -33.3106 -4.77835 0.831156
ltibia 34.1578
lfoot -5.24898 -15.0589
ltoes -18.4652
363
root 14.5869 17.0662 13.3319 -365.538 73.1187 -15.3935
lowerback 0.0381789 -5.56711 -2.26142
upperback -0.00585066 -7.42883 3.16863
thorax 0.681165 -3.7343 4.43287
lowerneck -3.87843 -16.128 -9.27246
upperneck 21.6442 -22.8053 7.81487
head 9.44598 -10.7495 1.64534
rclavicle 4.68138e-014 -1.98785e-014
rhumerus -59.6172 28.4053 -93.4197
rradius 58.9717
rwrist 22.308
rhand -24.1895 -15.4393
rfingers 7.12502
rthumb 2.29436 -45.4067
lclavicle 4.68138e-014 -1.98785e-014
lhumerus -28.8537 -10.8912 92.8542
lradius 45.3462
lwrist 14.9326
lhand -20.7105 11.7611
lfingers 7.12502
lthumb 5.6539 41.6657
rfemur -10.4887 25.4373 14.521
rtibia 39.1282
rfoot 14.6026 26.8889
rtoes 39.1278
lfemur -34.0363 -6.1136 1.30165
ltibia 32.9839
lfoot -3.34728 -13.5512
ltoes -19.1342
364
root 14.3906 17.0939 13.3671 -366.115 74.0946 -16.2838
lowerback 0.575498 -5.59325 -1.93495
upperback 0.181262 -7.46498 3.33931
thorax 0.559032 -3.75151 4.47493
lowerneck -3.77218 -16.2185 -9.29655
upperneck 20.9063 -22.9053 8.04712
head 9.21034 -10.81 1.73708
rclavicle 2.24378e-014 -4.37326e-015
rhumerus -59.2503 29.7719 -93.2529
rradius 59.4915
rwrist 22.4305
rhand -24.267 -15.4155
rfingers 7.12502
rthumb 2.21945 -45.3837
lclavicle 2.24378e-014 -4.37326e-015
lhumerus -28.3975 -11.2714 92.5448
lradius 45.8602
lwrist 15.1294
lhand -20.9656 11.5962
lfingers 7.12502
lthumb 5.40758 41.5072
rfemur -11.1395 24.7705 14.587
rtibia 38.8261
rfoot 14.3043 26.8792
rtoes 39.3556
lfemur -34.8239 -7.23856 1.69615
ltibia 31.9534
lfoot -1.23159 -11.8502
ltoes -19.5181
